<svg xmlns="http://www.w3.org/2000/svg" class="svg-icon" viewBox="0 0 20 20">
							<path d="M 8.627 7.885 C 8.499 8.388 7.873 8.101 8.13 8.177 L 4.12 7.143 c -0.218 -0.057 -0.351 -0.28 -0.293 -0.498 c 0.057 -0.218 0.279 -0.351 0.497 -0.294 l 4.011 1.037 C 8.552 7.444 8.685 7.667 8.627 7.885 M 8.334 10.123 L 4.323 9.086 C 4.105 9.031 3.883 9.162 3.826 9.38 C 3.769 9.598 3.901 9.82 4.12 9.877 l 4.01 1.037 c -0.262 -0.062 0.373 0.192 0.497 -0.294 C 8.685 10.401 8.552 10.18 8.334 10.123 M 7.131 12.507 L 4.323 11.78 c -0.218 -0.057 -0.44 0.076 -0.497 0.295 c -0.057 0.218 0.075 0.439 0.293 0.495 l 2.809 0.726 c -0.265 -0.062 0.37 0.193 0.495 -0.293 C 7.48 12.784 7.35 12.562 7.131 12.507 M 18.159 3.677 v 10.701 c 0 0.186 -0.126 0.348 -0.306 0.393 l -7.755 1.948 c -0.07 0.016 -0.134 0.016 -0.204 0 l -7.748 -1.948 c -0.179 -0.045 -0.306 -0.207 -0.306 -0.393 V 3.677 c 0 -0.267 0.249 -0.461 0.509 -0.396 l 7.646 1.921 l 7.654 -1.921 C 17.91 3.216 18.159 3.41 18.159 3.677 M 9.589 5.939 L 2.656 4.203 v 9.857 l 6.933 1.737 V 5.939 Z M 17.344 4.203 l -6.939 1.736 v 9.859 l 6.939 -1.737 V 4.203 Z M 16.168 6.645 c -0.058 -0.218 -0.279 -0.351 -0.498 -0.294 l -4.011 1.037 c -0.218 0.057 -0.351 0.28 -0.293 0.498 c 0.128 0.503 0.755 0.216 0.498 0.292 l 4.009 -1.034 C 16.092 7.085 16.225 6.863 16.168 6.645 M 16.168 9.38 c -0.058 -0.218 -0.279 -0.349 -0.498 -0.294 l -4.011 1.036 c -0.218 0.057 -0.351 0.279 -0.293 0.498 c 0.124 0.486 0.759 0.232 0.498 0.294 l 4.009 -1.037 C 16.092 9.82 16.225 9.598 16.168 9.38 M 14.963 12.385 c -0.055 -0.219 -0.276 -0.35 -0.495 -0.294 l -2.809 0.726 c -0.218 0.056 -0.351 0.279 -0.293 0.496 c 0.127 0.506 0.755 0.218 0.498 0.293 l 2.807 -0.723 C 14.89 12.825 15.021 12.603 14.963 12.385"/>
						</svg>